<svg xmlns="http://www.w3.org/2000/svg" xmlns:xlink="http://www.w3.org/1999/xlink" width="500" zoomAndPan="magnify" viewBox="0 0 375 374.999991" height="500" preserveAspectRatio="xMidYMid meet" version="1.0"><defs><clipPath id="15b9010618"><path d="M 41.261719 27.960938 L 346.417969 27.960938 L 346.417969 324.195312 L 41.261719 324.195312 Z M 41.261719 27.960938 " clip-rule="nonzero"/></clipPath></defs><rect x="-37.5" width="450" fill="#ffffff" y="-37.499999" height="449.999989" fill-opacity="1"/><rect x="-37.5" width="450" fill="#ffffff" y="-37.499999" height="449.999989" fill-opacity="1"/><g clip-path="url(#15b9010618)"><path fill="#100f0d" d="M 112.761719 305.902344 C 110.628906 310.699219 106.125 317.039062 100.492188 318.460938 C 102.449219 320.355469 104.699219 321.601562 107.488281 321.242188 C 109.085938 321.007812 109.503906 323.851562 107.902344 324.085938 C 101.382812 325.035156 97.46875 319.703125 94.265625 314.726562 C 90.175781 308.328125 87.332031 302.167969 86.5 294.585938 C 85.96875 289.789062 85.90625 284.929688 84.839844 280.191406 C 84.011719 276.460938 81.996094 273.082031 81.105469 269.351562 C 80.097656 265.027344 81.578125 259.992188 86.441406 259.160156 C 87.269531 259.042969 87.6875 260.226562 86.796875 260.464844 C 78.675781 262.539062 85.019531 272.847656 86.441406 277.347656 C 87.980469 282.207031 88.160156 287.300781 88.753906 292.277344 C 89.523438 298.554688 91.125 304.0625 94.386719 309.515625 C 95.6875 311.707031 97.230469 314.550781 99.1875 316.980469 C 101.914062 316.148438 104.167969 315.082031 106.359375 312.890625 C 108.613281 310.640625 110.15625 307.855469 112.109375 305.367188 C 112.40625 304.894531 113 305.488281 112.761719 305.902344 Z M 157.757812 299.027344 C 166.53125 294.054688 174 286.410156 178.269531 277.347656 C 178.625 276.636719 179.574219 277.171875 179.457031 277.820312 C 177.617188 287.417969 166.472656 295.714844 158.292969 299.917969 C 157.699219 300.273438 157.164062 299.386719 157.757812 299.027344 Z M 297.011719 228.003906 C 290.609375 226.285156 284.148438 226.582031 277.628906 226.34375 C 272.707031 226.167969 267.074219 225.871094 262.863281 223.027344 C 262.390625 222.671875 262.6875 221.902344 263.277344 222.078125 C 269.445312 223.617188 275.136719 224.628906 281.480469 224.921875 C 286.875 225.160156 292.152344 225.515625 297.308594 227.234375 C 297.722656 227.351562 297.542969 228.121094 297.011719 228.003906 Z M 251.421875 261.710938 C 248.042969 260.640625 244.011719 259.105469 241.582031 256.378906 C 241.285156 256.023438 241.640625 255.488281 242.058594 255.726562 C 243.539062 256.554688 244.902344 257.742188 246.382812 258.570312 C 248.042969 259.519531 249.765625 260.347656 251.601562 261 C 252.015625 261.175781 251.839844 261.828125 251.421875 261.710938 Z M 290.84375 122.144531 C 292.625 119.417969 296.179688 116.871094 299.621094 117.878906 C 300.15625 118.054688 300.210938 118.828125 299.621094 118.945312 C 298.199219 119.242188 296.773438 119.300781 295.351562 119.894531 C 293.929688 120.542969 292.503906 121.433594 291.5 122.617188 C 291.203125 122.972656 290.609375 122.5 290.84375 122.144531 Z M 272.527344 156.796875 C 260.90625 168.765625 250.828125 182.863281 234.351562 188.019531 C 233.933594 188.136719 233.757812 187.484375 234.171875 187.363281 C 242.707031 184.226562 249.765625 178.71875 255.929688 172.140625 C 261.085938 166.632812 265.648438 160.292969 271.757812 155.789062 C 272.351562 155.375 273.003906 156.324219 272.527344 156.796875 Z M 221.308594 118.054688 C 218.996094 119.773438 218.167969 125.640625 217.394531 128.304688 C 216.445312 131.679688 215.5 135 214.667969 138.375 C 214.550781 138.789062 213.898438 138.613281 214.015625 138.199219 C 215.140625 132.925781 216.328125 127.710938 217.753906 122.558594 C 218.34375 120.484375 218.519531 117.285156 221.070312 117.226562 C 221.546875 117.167969 221.605469 117.820312 221.308594 118.054688 Z M 243.597656 87.84375 C 247.453125 81.566406 250.949219 75.109375 252.433594 67.820312 C 253.792969 60.890625 254.386719 53.664062 256.226562 46.851562 C 256.402344 46.261719 257.410156 46.378906 257.351562 47.03125 C 256.816406 54.257812 255.21875 61.898438 253.617188 69.007812 C 252.015625 76.234375 248.164062 82.15625 244.191406 88.257812 C 243.953125 88.617188 243.300781 88.257812 243.597656 87.84375 Z M 217.929688 148.625 C 220.539062 133.28125 225.636719 118.765625 231.265625 104.3125 C 233.996094 97.207031 236.839844 90.097656 239.269531 82.929688 C 241.820312 75.464844 243.597656 67.882812 245.851562 60.300781 C 246.03125 59.707031 247.035156 59.824219 246.976562 60.476562 C 245.375 75.464844 238.617188 90.15625 233.164062 104.074219 C 227.414062 118.648438 221.425781 133.398438 218.640625 148.859375 C 218.519531 149.273438 217.871094 149.097656 217.929688 148.625 Z M 102.566406 165.386719 C 110.214844 166.929688 117.800781 168.824219 125.328125 170.660156 C 131.4375 172.199219 138.253906 173.445312 143.886719 176.347656 C 144.539062 176.703125 144.0625 177.589844 143.410156 177.472656 C 136.890625 176.347656 130.429688 173.800781 123.964844 172.082031 C 116.734375 170.1875 109.441406 168.289062 102.328125 166.101562 C 101.914062 165.921875 102.09375 165.328125 102.566406 165.386719 Z M 91.894531 139.5 C 91.183594 139.265625 91.480469 138.257812 92.191406 138.375 C 98.417969 139.738281 104.046875 142.996094 109.207031 146.609375 C 109.441406 146.785156 109.207031 147.203125 108.96875 147.023438 C 103.691406 143.527344 97.882812 141.457031 91.894531 139.5 Z M 80.515625 136.953125 C 93.972656 141.277344 107.425781 147.496094 119.519531 154.722656 C 119.875 154.902344 119.640625 155.496094 119.222656 155.375 C 118.808594 155.257812 118.394531 155.140625 117.980469 155.019531 C 117.800781 154.960938 117.800781 154.667969 118.039062 154.667969 C 115.84375 154.667969 111.992188 151.824219 109.917969 150.875 C 106.835938 149.394531 103.753906 147.972656 100.609375 146.609375 C 93.851562 143.648438 86.976562 141.160156 80.15625 138.433594 C 79.269531 138.019531 79.625 136.65625 80.515625 136.953125 Z M 133.808594 82.097656 C 134.222656 103.957031 138.3125 124.75 148.332031 144.417969 C 148.566406 144.949219 147.855469 145.367188 147.5625 144.890625 C 137.1875 125.992188 130.960938 103.839844 132.265625 82.15625 C 132.324219 81.09375 133.746094 81.09375 133.808594 82.097656 Z M 146.910156 50.703125 C 148.332031 55.144531 148.449219 60.003906 149.101562 64.5625 C 149.875 69.957031 151.058594 75.34375 152.542969 80.617188 C 152.660156 81.152344 151.890625 81.328125 151.769531 80.855469 C 150.050781 75.640625 148.628906 70.429688 147.679688 64.976562 C 146.851562 59.941406 146.554688 54.90625 145.132812 49.992188 C 144.894531 49.105469 146.140625 48.746094 146.492188 49.519531 C 146.671875 49.28125 146.910156 49.164062 147.265625 49.222656 C 154.082031 50.40625 159.359375 55.203125 161.433594 61.78125 C 161.609375 62.253906 160.839844 62.433594 160.722656 61.957031 C 158.589844 55.972656 153.191406 51.710938 146.910156 50.703125 Z M 185.914062 98.273438 C 182.777344 89.324219 180.40625 80.855469 174.652344 73.035156 C 174.417969 72.679688 175.007812 72.207031 175.246094 72.5625 C 180.9375 79.667969 186.390625 88.792969 186.867188 98.09375 C 186.925781 98.6875 186.09375 98.742188 185.914062 98.273438 Z M 182.480469 188.019531 C 183.308594 188.550781 184.078125 189.023438 184.910156 189.5 C 185.265625 189.675781 185.621094 189.792969 185.976562 189.851562 C 187.042969 192.046875 187.992188 194.238281 188.941406 196.429688 C 186.746094 193.644531 184.554688 190.863281 182.480469 188.019531 Z M 195.164062 192.816406 C 195.460938 194.472656 195.699219 196.191406 195.875 197.851562 C 195.34375 197.257812 194.867188 196.664062 194.335938 196.074219 C 192.972656 192.992188 191.609375 189.914062 190.421875 186.832031 C 188.109375 180.910156 185.859375 174.984375 183.722656 169.0625 C 184.613281 170.542969 185.738281 171.84375 187.101562 172.734375 C 187.816406 173.207031 188.527344 173.328125 189.117188 173.207031 C 189.355469 173.621094 189.59375 173.976562 189.890625 174.332031 C 189.890625 174.394531 189.949219 174.394531 190.007812 174.449219 C 189.828125 174.746094 189.769531 175.160156 189.890625 175.636719 C 191.25 181.5 194.15625 186.773438 195.164062 192.816406 Z M 215.675781 193.703125 C 214.015625 195.539062 212.296875 197.199219 210.460938 198.859375 C 211.824219 196.84375 213.066406 194.769531 214.195312 192.640625 C 214.726562 192.992188 215.203125 193.347656 215.675781 193.703125 Z M 228.835938 181.679688 L 228.835938 181.621094 L 228.894531 181.679688 C 228.894531 181.621094 228.894531 181.621094 228.835938 181.679688 Z M 189.117188 188.433594 C 189.117188 188.433594 189.175781 188.433594 189.117188 188.433594 C 189.117188 188.433594 189.175781 188.492188 189.175781 188.550781 C 189.175781 188.492188 189.175781 188.492188 189.117188 188.433594 Z M 199.195312 185.589844 C 199.195312 185.113281 199.195312 184.699219 199.136719 184.226562 C 199.375 185.175781 199.550781 186.0625 199.789062 187.011719 C 199.609375 186.476562 199.375 186.003906 199.195312 185.589844 Z M 211.644531 177.589844 C 211.882812 177.589844 212.121094 177.53125 212.355469 177.472656 C 212 178.242188 211.585938 179.070312 211.230469 179.84375 C 211.289062 179.070312 211.46875 178.363281 211.644531 177.589844 Z M 182.183594 179.84375 C 182.0625 179.722656 182.121094 179.722656 182.183594 179.84375 Z M 181.828125 63.675781 C 181.886719 57.277344 180.9375 50.882812 179.929688 44.601562 C 179.871094 44.070312 178.921875 44.1875 178.980469 44.71875 C 179.632812 50.109375 179.8125 55.5 180.046875 60.953125 C 179.75 60.476562 179.457031 60.0625 179.160156 59.648438 C 175.601562 54.730469 171.039062 50.40625 165.820312 47.5625 C 165.878906 47.503906 165.9375 47.445312 166 47.386719 C 166.054688 47.265625 166.175781 47.148438 166.234375 47.03125 C 166.648438 46.4375 165.878906 45.847656 165.289062 46.082031 C 167.183594 45.074219 168.191406 42.644531 169.734375 40.8125 C 171.15625 39.152344 172.816406 37.671875 174.476562 36.246094 C 176.253906 34.710938 179.632812 31.035156 182.121094 30.917969 C 184.433594 30.796875 185.148438 33.640625 186.390625 35.300781 C 191.964844 42.882812 200.855469 49.042969 199.90625 59.527344 C 199.847656 60.0625 200.144531 60.476562 200.558594 60.714844 C 196.351562 69.480469 194.808594 79.433594 193.566406 89.148438 C 193.503906 88.910156 193.445312 88.671875 193.328125 88.4375 C 194.691406 83.757812 193.566406 78.011719 193.328125 73.390625 C 192.910156 65.925781 192.675781 58.523438 190.777344 51.234375 C 190.601562 50.585938 189.652344 50.882812 189.769531 51.53125 C 191.195312 58.164062 191.3125 64.921875 191.609375 71.671875 C 191.785156 75.761719 192.617188 80.675781 192.199219 85.121094 C 191.132812 82.453125 189.949219 79.847656 188.820312 77.300781 C 186.628906 72.679688 184.433594 68.058594 181.828125 63.675781 Z M 342.300781 134.703125 C 342.246094 134.703125 342.183594 134.761719 342.125 134.761719 C 342.183594 134.230469 342.183594 133.636719 342.246094 133.101562 C 342.300781 132.511719 341.296875 132.332031 341.175781 132.984375 C 340.464844 136.421875 338.925781 139.5 337.917969 142.875 C 337.503906 144.179688 339.515625 145.070312 340.109375 143.824219 C 341.296875 141.457031 341.769531 138.671875 342.007812 136.007812 C 342.125 136.125 342.300781 136.183594 342.480469 136.242188 C 346.808594 136.714844 342.066406 146.429688 341.175781 147.617188 C 341.058594 147.792969 340.9375 147.910156 340.820312 148.089844 C 340.289062 147.855469 339.636719 148.503906 339.875 149.097656 C 338.390625 150.519531 336.613281 151.585938 334.890625 152.710938 C 332.226562 154.488281 329.378906 156.324219 328.964844 159.703125 C 328.847656 160.53125 330.03125 160.824219 330.507812 160.351562 C 333.410156 157.566406 336.136719 155.4375 339.398438 153.125 C 339.992188 152.710938 340.523438 152.296875 341 151.824219 C 341.710938 154.253906 341.652344 156.859375 340.523438 159.167969 C 339.28125 161.773438 336.730469 163.195312 335.25 165.566406 C 333.410156 168.410156 332.816406 170.898438 329.734375 172.910156 C 327.1875 174.570312 324.222656 175.578125 321.4375 176.703125 C 315.980469 178.894531 310.527344 180.96875 305.074219 182.921875 C 305.074219 182.921875 305.074219 182.921875 305.132812 182.863281 C 308.394531 180.96875 311.417969 178.539062 314.558594 176.40625 C 318.113281 173.976562 321.851562 171.726562 325.289062 169.121094 C 325.703125 168.824219 325.347656 168.230469 324.875 168.46875 C 321.257812 170.363281 317.402344 172.496094 313.730469 174.808594 C 317.167969 171.371094 320.605469 167.996094 324.519531 165.089844 C 325.230469 164.558594 324.636719 163.609375 323.867188 163.964844 C 317.050781 167.046875 312.128906 172.792969 306.617188 177.652344 C 303.355469 180.554688 299.859375 183.039062 295.945312 184.996094 C 292.386719 186.832031 288.535156 187.78125 285.039062 189.675781 C 285.039062 189.675781 285.039062 189.675781 284.976562 189.675781 C 281.125 190.917969 277.210938 192.105469 273.355469 193.289062 C 279.523438 187.070312 283.554688 177.589844 291.082031 173.265625 C 291.5 173.03125 291.140625 172.4375 290.726562 172.671875 C 285.511719 175.519531 281.894531 179.960938 278.277344 184.582031 C 275.257812 188.433594 272.351562 191.808594 268.734375 194.710938 C 267.84375 194.949219 266.957031 195.246094 266.066406 195.480469 C 267.902344 193.761719 269.5625 191.75 270.984375 189.734375 C 277.507812 180.554688 281.777344 170.660156 291.203125 163.847656 C 291.617188 163.550781 291.203125 162.898438 290.789062 163.195312 C 283.496094 168.113281 278.691406 174.273438 274.1875 181.738281 C 270.632812 187.605469 266.894531 193.171875 261.5625 196.726562 C 257.589844 197.851562 253.558594 198.917969 249.527344 199.984375 C 243.714844 201.464844 237.847656 202.945312 231.980469 204.25 C 228.777344 204.957031 225.042969 205.789062 221.605469 205.609375 C 222.554688 205.078125 223.503906 204.542969 224.449219 204.011719 C 230.851562 200.160156 237.195312 196.132812 243.539062 192.28125 C 244.011719 191.984375 243.597656 191.277344 243.125 191.511719 C 237.667969 194.652344 232.15625 197.730469 226.703125 200.933594 C 224.09375 202.472656 221.484375 204.011719 218.757812 205.195312 C 217.871094 204.957031 216.980469 204.605469 216.210938 204.128906 C 218.464844 201.285156 220.359375 198.265625 222.078125 195.007812 C 222.136719 194.886719 222.199219 194.710938 222.257812 194.59375 C 222.613281 194.238281 222.910156 193.882812 223.144531 193.40625 C 224.09375 193.171875 224.925781 192.402344 224.449219 191.277344 C 224.449219 191.214844 224.390625 191.15625 224.390625 191.097656 C 226.347656 188.789062 228.421875 186.59375 230.734375 184.640625 C 231.503906 183.988281 231.386719 183.039062 230.914062 182.390625 C 231.386719 182.390625 231.859375 182.328125 232.335938 182.09375 C 233.816406 181.382812 235.476562 179.605469 236.78125 177.472656 C 237.613281 176.703125 238.378906 175.875 239.152344 175.042969 C 242.886719 171.074219 246.503906 167.046875 250.179688 163.078125 C 250.59375 162.601562 249.941406 161.953125 249.46875 162.367188 C 245.851562 166.039062 242.292969 170.125 238.378906 173.742188 C 239.507812 170.125 238.914062 166.632812 234.585938 166.101562 C 231.03125 165.625 228.246094 168.644531 226.523438 171.371094 C 224.628906 174.332031 223.621094 177.886719 224.214844 181.382812 C 224.449219 182.625 225.398438 183.160156 226.40625 183.101562 C 224.507812 184.464844 222.792969 185.945312 221.1875 187.542969 C 220.0625 186.890625 218.816406 186.476562 217.515625 186.242188 C 221.308594 178.65625 224.390625 170.71875 227.296875 162.78125 C 227.535156 162.1875 226.585938 161.953125 226.40625 162.546875 C 223.261719 170.480469 220.003906 178.421875 215.972656 186.003906 C 215.558594 185.945312 215.203125 185.882812 214.789062 185.882812 C 212.058594 185.648438 210.757812 189.4375 212.59375 191.15625 C 212.652344 191.214844 212.769531 191.332031 212.832031 191.394531 C 210.8125 194.59375 208.621094 197.675781 206.429688 200.695312 C 206.605469 198.207031 207.082031 195.777344 207.730469 193.40625 C 208.441406 190.742188 209.332031 188.195312 209.984375 185.53125 C 211.882812 182.210938 213.480469 178.71875 215.023438 175.160156 C 218.699219 166.691406 222.136719 158.160156 225.695312 149.632812 C 225.875 149.15625 225.042969 148.800781 224.804688 149.273438 C 221.425781 156.859375 218.046875 164.378906 214.667969 171.964844 C 214.964844 166.515625 215.558594 157.152344 209.453125 156.976562 C 206.191406 156.859375 205.480469 159.820312 205.480469 162.367188 C 205.480469 165.742188 205.066406 170.839844 207.019531 173.742188 C 207.316406 174.15625 207.730469 174.394531 208.148438 174.511719 C 208.148438 175.222656 208.503906 175.933594 208.976562 176.464844 C 207.496094 179.25 205.539062 181.796875 204.175781 184.640625 C 203.996094 185.054688 203.820312 185.46875 203.644531 185.828125 C 203.644531 184.519531 203.582031 183.160156 203.523438 181.796875 C 203.167969 171.726562 202.691406 161.65625 202.691406 151.527344 C 202.753906 131.027344 204.589844 110.535156 210.519531 90.925781 C 210.695312 90.332031 209.75 90.035156 209.570312 90.6875 C 203.878906 108.757812 201.566406 127.59375 201.09375 146.492188 C 200.855469 156.085938 201.03125 165.683594 201.449219 175.28125 C 201.566406 178.539062 201.746094 181.855469 201.804688 185.113281 C 199.375 174.925781 196.054688 164.738281 195.164062 154.371094 C 193.621094 135.769531 196.46875 116.871094 200.382812 98.6875 C 200.441406 98.328125 199.90625 98.152344 199.847656 98.507812 C 196.527344 113.082031 193.621094 127.710938 193.328125 142.640625 C 192.378906 126.171875 193.859375 109.703125 195.9375 93.414062 C 197.832031 78.546875 199.253906 60.832031 211.289062 50.230469 C 214.074219 47.742188 217.277344 45.847656 220.890625 44.78125 C 223.503906 44.007812 226.226562 43.710938 228.660156 42.410156 C 223.796875 47.917969 220.359375 55.265625 218.226562 61.898438 C 218.046875 62.492188 218.9375 62.730469 219.175781 62.136719 C 220.890625 57.632812 222.96875 53.308594 225.636719 49.339844 C 228.066406 45.667969 231.148438 42.644531 233.757812 39.152344 C 233.933594 38.914062 233.816406 38.558594 233.582031 38.382812 C 234.113281 37.847656 234.648438 37.375 235.242188 36.898438 C 239.6875 33.226562 244.902344 34.234375 248.636719 38.261719 L 248.695312 38.320312 C 248.875 39.210938 250.117188 39.210938 250.238281 38.261719 C 250.179688 36.484375 250.890625 35.300781 252.371094 34.589844 C 253.320312 33.285156 254.507812 33.109375 255.867188 34.117188 C 258.183594 34.765625 259.011719 35.597656 260.375 37.554688 C 261.917969 39.746094 263.042969 42.230469 263.753906 44.71875 C 265.234375 49.816406 265.296875 55.203125 264.230469 60.359375 C 263.160156 65.691406 261.027344 70.726562 258.480469 75.523438 C 256.105469 79.90625 252.964844 84.054688 251.421875 88.851562 C 251.007812 90.214844 253.023438 91.042969 253.734375 89.800781 C 253.855469 89.621094 253.914062 89.445312 254.03125 89.265625 C 254.152344 89.445312 254.445312 89.5625 254.683594 89.386719 C 258.714844 86.660156 262.152344 82.574219 266.480469 80.203125 C 264.464844 85.832031 260.90625 90.394531 257.769531 95.429688 C 254.445312 100.816406 251.660156 106.386719 248.992188 112.132812 C 248.753906 112.605469 249.46875 113.082031 249.765625 112.546875 C 253.023438 106.269531 256.640625 100.105469 260.492188 94.183594 C 263.339844 89.859375 267.785156 85.238281 267.726562 79.730469 C 267.726562 79.667969 267.726562 79.613281 267.667969 79.550781 C 268.4375 79.195312 269.265625 78.898438 270.097656 78.664062 C 278.21875 76.53125 283.792969 81.625 285.570312 89.089844 C 285.75 89.917969 287.113281 89.980469 287.289062 89.089844 C 288.535156 82.335938 282.25 76.707031 275.96875 75.996094 C 267.785156 75.109375 260.433594 81.683594 255.101562 87.429688 C 262.511719 74.8125 270.984375 60.59375 266.835938 45.429688 C 265.53125 40.691406 262.214844 33.464844 257.054688 31.6875 C 253.441406 30.445312 249.347656 33.109375 248.816406 36.722656 C 246.679688 34.175781 243.480469 32.8125 240.039062 32.988281 C 234.351562 33.285156 231.742188 38.675781 226.820312 40.691406 C 221.367188 42.941406 216.210938 43.238281 211.289062 46.972656 C 207.910156 49.578125 205.066406 52.835938 202.8125 56.449219 C 202.574219 51.945312 200.5 47.917969 197.714844 44.246094 C 195.875 41.875 193.742188 39.683594 191.785156 37.433594 C 189.53125 34.886719 188.050781 31.863281 185.914062 29.316406 C 182.777344 25.644531 177.675781 30.324219 175.070312 32.574219 C 170.679688 36.367188 165.703125 40.574219 164.042969 46.378906 C 164.042969 46.4375 164.042969 46.496094 164.042969 46.496094 C 159.65625 44.484375 154.851562 43.476562 149.695312 44.070312 C 148.746094 44.1875 148.6875 45.667969 149.695312 45.609375 C 175.367188 44.421875 186.628906 77.359375 192.199219 97.027344 C 192.261719 97.207031 192.378906 97.382812 192.496094 97.5 C 190.601562 112.191406 189.414062 127.003906 190.125 141.8125 C 190.71875 154.253906 193.859375 166.453125 195.402344 178.71875 C 194.570312 177.355469 193.800781 175.992188 193.269531 174.511719 C 193.089844 173.917969 192.675781 173.5625 192.261719 173.445312 C 194.570312 168.46875 192.023438 157.390625 186.09375 156.382812 C 182.417969 155.734375 181.054688 158.8125 181.292969 161.773438 C 175.542969 145.304688 170.328125 128.601562 165.820312 111.777344 C 165.640625 111.183594 164.753906 111.421875 164.929688 112.015625 C 169.316406 129.488281 174.238281 146.785156 180.164062 163.847656 C 182.300781 170.007812 184.554688 176.109375 186.867188 182.152344 C 186.15625 181.144531 185.324219 180.257812 184.492188 179.367188 C 180.164062 170.71875 176.195312 161.953125 172.578125 153.007812 C 165.34375 135 159.773438 116.398438 155.148438 97.558594 C 155.03125 97.207031 154.496094 97.324219 154.554688 97.738281 C 158.230469 117.640625 164.160156 137.011719 171.75 155.734375 C 174.652344 162.839844 177.792969 169.890625 181.171875 176.761719 C 181.054688 176.703125 180.9375 176.585938 180.875 176.523438 C 179.632812 175.695312 177.5 176.171875 176.847656 177.589844 C 176.609375 178.066406 176.492188 178.539062 176.371094 179.015625 C 169.019531 167.816406 162.855469 155.734375 159.359375 142.757812 C 159.179688 142.167969 158.351562 142.40625 158.46875 142.996094 C 161.730469 156.917969 167.957031 169.59375 175.898438 181.441406 C 179.632812 187.011719 183.664062 192.402344 187.871094 197.613281 C 188.703125 198.621094 189.472656 199.6875 190.304688 200.753906 C 187.339844 199.507812 184.199219 198.441406 181.292969 197.199219 C 180.640625 196.902344 180.046875 197.851562 180.699219 198.207031 C 184.613281 200.042969 188.644531 202.414062 192.734375 204.011719 C 192.855469 204.191406 192.972656 204.367188 193.148438 204.488281 C 193.566406 205.195312 194.039062 205.90625 194.511719 206.617188 C 194.394531 206.617188 194.214844 206.617188 194.039062 206.679688 C 193.328125 206.855469 192.617188 207.09375 191.90625 207.328125 C 187.101562 205.671875 182.003906 204.605469 177.203125 202.886719 C 170.328125 200.515625 163.566406 197.730469 157.105469 194.414062 C 156.632812 194.175781 156.15625 194.886719 156.691406 195.183594 C 166.175781 200.574219 176.964844 205.730469 187.871094 208.394531 C 184.078125 208.988281 180.582031 209.34375 176.550781 208.691406 C 172.460938 207.980469 168.488281 206.679688 164.574219 205.375 C 163.863281 205.136719 163.628906 206.203125 164.277344 206.4375 C 168.84375 208.214844 174.535156 210.527344 180.046875 211.003906 C 179.691406 211.121094 179.335938 211.238281 178.980469 211.296875 C 172.816406 212.898438 167.003906 212.898438 160.78125 211.652344 C 149.933594 209.523438 140.269531 207.152344 129.066406 208.097656 C 108.847656 209.875 82.707031 216.570312 69.960938 195.539062 C 69.605469 194.949219 68.480469 195.304688 68.777344 196.074219 C 76.71875 217.992188 105.234375 214.140625 123.199219 211.949219 C 129.363281 211.179688 135.527344 210.585938 141.75 211.121094 C 146.96875 211.535156 152.007812 212.957031 157.105469 214.082031 C 130.902344 217.695312 108.792969 235.289062 89.226562 252.113281 C 87.746094 253.359375 89.878906 255.429688 91.359375 254.246094 C 112.167969 236.828125 133.15625 218.820312 160.960938 214.910156 C 161.136719 214.972656 161.375 214.972656 161.550781 215.027344 C 164.339844 215.503906 167.003906 215.679688 169.671875 215.621094 C 165.9375 217.101562 162.324219 218.820312 158.824219 220.539062 C 151.710938 224.035156 144.359375 227.886719 138.195312 232.980469 C 135.527344 235.171875 133.332031 237.660156 131.4375 240.5 C 129.003906 244.234375 126.21875 246.425781 122.839844 249.210938 C 117.445312 253.59375 112.878906 259.753906 110.867188 266.449219 C 110.746094 266.863281 111.339844 267.101562 111.578125 266.746094 C 115.074219 259.160156 119.34375 253.652344 126.039062 248.738281 C 131.375 244.828125 133.808594 238.84375 138.847656 234.578125 C 150.171875 224.980469 164.339844 219.945312 177.972656 214.558594 C 183.542969 213.429688 189 211.535156 194.511719 209.578125 C 194.75 209.578125 194.988281 209.523438 195.105469 209.34375 C 195.519531 209.105469 195.816406 208.691406 195.875 208.277344 C 196.230469 208.691406 196.527344 209.105469 196.941406 209.523438 C 188.644531 212.246094 180.460938 215.5625 172.996094 220.007812 C 163.863281 225.457031 157.164062 232.800781 151.828125 241.925781 C 148.6875 247.3125 145.78125 252.707031 141.871094 257.621094 C 137.957031 262.539062 133.453125 266.984375 129.421875 271.78125 C 122.957031 279.480469 117.386719 288.542969 117.503906 298.910156 C 117.503906 299.386719 118.214844 299.386719 118.214844 298.910156 C 118.808594 286.707031 126.335938 277.46875 134.222656 268.816406 C 141.335938 261.058594 147.265625 253.296875 152.542969 244.175781 C 157.996094 234.753906 164.457031 227.171875 173.882812 221.546875 C 181.054688 217.222656 188.878906 214.320312 196.707031 211.476562 C 195.992188 212.128906 195.28125 212.78125 194.570312 213.371094 C 189.949219 217.457031 185.5625 221.664062 181.292969 226.109375 C 172.875 234.875 165.523438 244.292969 158.765625 254.363281 C 158.46875 254.777344 159.121094 255.136719 159.417969 254.71875 C 166 245.773438 173.230469 237.125 180.875 229.070312 C 184.375 225.394531 187.992188 221.839844 191.726562 218.40625 C 193.980469 216.335938 196.289062 213.964844 198.839844 212.007812 C 197.003906 218.644531 194.394531 224.980469 190.835938 230.90625 C 188.644531 234.636719 186.09375 238.132812 183.25 241.390625 C 181.171875 243.820312 178.386719 245.953125 177.082031 248.914062 C 175.484375 252.644531 175.304688 256.554688 173.171875 260.226562 C 171.039062 263.902344 168.074219 267.101562 164.929688 270.003906 C 158.765625 275.691406 151.769531 280.367188 146.140625 286.707031 C 145.78125 287.125 146.375 287.773438 146.789062 287.359375 C 152.601562 280.902344 160.070312 276.339844 166.472656 270.535156 C 172.28125 265.261719 176.015625 259.398438 177.914062 251.757812 C 179.097656 247.078125 183.308594 243.996094 186.273438 240.382812 C 188.644531 237.480469 190.71875 234.402344 192.617188 231.144531 C 195.992188 225.335938 198.605469 219.117188 200.382812 212.660156 C 200.441406 212.71875 200.558594 212.835938 200.617188 212.898438 C 200.796875 213.132812 200.976562 213.3125 201.210938 213.429688 C 201.746094 213.90625 202.21875 214.378906 202.753906 214.851562 C 202.8125 214.910156 202.871094 214.910156 202.933594 214.910156 C 202.339844 219.945312 199.96875 225.160156 198.425781 229.71875 C 196.410156 235.644531 194.277344 241.511719 191.90625 247.3125 C 191.726562 247.789062 192.558594 248.144531 192.734375 247.671875 C 195.519531 241.332031 198.1875 234.992188 200.5 228.476562 C 202.160156 223.738281 204.710938 218.40625 204.648438 213.25 C 205.480469 212.957031 206.308594 212.542969 207.140625 212.066406 C 206.25 223.144531 205.71875 234.105469 202.515625 244.886719 C 199.078125 256.320312 191.84375 266.269531 190.125 278.238281 C 189.949219 279.363281 191.609375 279.835938 191.84375 278.710938 C 194.214844 266.449219 202.042969 256.082031 205.597656 244.117188 C 207.4375 237.957031 208.621094 231.496094 209.390625 224.921875 C 209.6875 226.640625 209.984375 228.359375 210.34375 229.957031 C 212.417969 239.4375 214.847656 248.855469 217.394531 258.214844 C 217.574219 258.925781 218.640625 258.628906 218.519531 257.917969 C 216.980469 249.03125 215.261719 240.207031 213.363281 231.320312 C 212.476562 227.234375 211.765625 223.144531 211.644531 218.941406 C 211.527344 215.324219 212.058594 211.832031 212.355469 208.277344 C 212.476562 208.277344 212.652344 208.214844 212.769531 208.214844 C 212.890625 209.226562 213.007812 210.289062 213.1875 211.296875 C 212.769531 213.015625 213.128906 214.558594 213.839844 216.039062 C 214.726562 221.902344 215.851562 227.765625 217.988281 233.097656 C 220.835938 240.085938 225.753906 245.714844 231.917969 249.980469 C 232.453125 250.335938 232.925781 249.507812 232.453125 249.089844 C 222.199219 241.746094 218.582031 230.964844 216.445312 219.53125 C 217.632812 220.714844 218.9375 221.785156 220.179688 222.730469 C 223.503906 225.21875 226.941406 227.527344 230.554688 229.601562 C 234.171875 231.675781 239.210938 233.21875 241.226562 237.125 C 241.464844 237.601562 242.117188 237.183594 241.878906 236.710938 C 239.566406 232.03125 233.933594 230.253906 229.785156 227.589844 C 224.804688 224.390625 218.226562 220.65625 215.734375 215.089844 C 215.4375 213.074219 215.140625 211.003906 214.847656 208.988281 C 218.34375 212.71875 222.019531 216.273438 226.289062 219.058594 C 232.574219 223.144531 239.921875 224.921875 246.917969 227.46875 C 262.273438 233.097656 276.972656 241.035156 290.078125 250.808594 C 290.429688 251.046875 290.726562 250.515625 290.429688 250.21875 C 278.457031 241.035156 265.648438 233.394531 251.71875 227.648438 C 244.488281 224.683594 236.601562 222.789062 229.785156 219.058594 C 224.925781 216.390625 220.835938 212.601562 216.980469 208.632812 C 233.875 214.199219 252.371094 215.917969 269.921875 216.984375 C 279.464844 217.578125 289.898438 219.058594 299.382812 217.871094 C 309.046875 216.628906 316.277344 208.75 326.476562 211.59375 C 327.839844 212.007812 328.550781 210.113281 327.425781 209.34375 C 320.25 204.664062 312.011719 210.171875 305.195312 212.898438 C 295.828125 216.628906 283.96875 214.4375 274.128906 213.90625 C 258.183594 213.074219 242.652344 211.355469 227.175781 208.394531 C 233.164062 207.683594 239.328125 205.609375 243.953125 204.425781 C 259.78125 200.457031 275.492188 195.835938 290.90625 190.503906 C 298.492188 187.898438 306.023438 185.113281 313.492188 182.210938 C 319.597656 179.84375 327.007812 177.886719 332.34375 173.917969 C 334.300781 172.4375 335.425781 170.777344 336.554688 168.585938 C 338.152344 165.386719 341 163.3125 342.660156 160.234375 C 344.496094 156.738281 344.320312 152.945312 342.542969 149.75 C 343.546875 148.625 344.378906 147.378906 344.96875 145.957031 C 346.15625 143.648438 348.527344 133.28125 342.300781 134.703125 Z M 302.878906 252.941406 C 304.835938 250.570312 305.546875 248.558594 305.726562 245.535156 C 305.84375 243.703125 305.90625 241.980469 307.503906 240.859375 C 308.097656 240.445312 308.867188 241.035156 308.867188 241.628906 C 308.925781 242.929688 308.453125 244.175781 308.277344 245.480469 C 308.097656 246.664062 307.980469 247.90625 307.621094 249.089844 C 306.910156 251.105469 305.609375 252.941406 303.769531 254.066406 C 303 254.484375 302.347656 253.535156 302.878906 252.941406 Z M 234.527344 269.765625 C 241.109375 273.675781 247.273438 271.601562 254.328125 272.136719 C 257.707031 272.433594 260.613281 273.914062 263.871094 274.800781 C 267.429688 275.75 270.929688 275.511719 274.367188 274.5625 C 269.445312 271.304688 265.058594 267.632812 259.484375 265.324219 C 259.128906 265.144531 259.367188 264.554688 259.722656 264.730469 C 265.355469 266.984375 271.699219 269.589844 275.90625 274.148438 C 281.242188 272.433594 286.101562 270.003906 290.667969 266.984375 C 290.609375 266.921875 290.550781 266.804688 290.492188 266.6875 C 287.761719 257.859375 279.109375 254.246094 271.699219 249.863281 C 271.222656 249.566406 271.640625 248.914062 272.113281 249.152344 C 279.523438 252.824219 290.078125 256.914062 291.792969 266.152344 C 292.921875 265.382812 293.988281 264.554688 295.117188 263.664062 C 295.945312 263.011719 296.894531 263.78125 296.539062 264.730469 C 293.75 271.128906 284.859375 273.972656 278.871094 276.28125 C 274.960938 277.761719 270.808594 278.832031 266.539062 278.414062 C 262.152344 278 258.359375 275.570312 254.03125 275.097656 C 249.703125 274.625 245.375 275.628906 241.046875 274.859375 C 237.847656 274.265625 234.882812 272.90625 232.277344 270.890625 C 227.058594 266.921875 222.847656 261 219.707031 255.371094 C 219.292969 254.660156 220.359375 254.007812 220.835938 254.71875 C 224.804688 260.347656 228.421875 266.152344 234.527344 269.765625 Z M 323.984375 236.476562 C 324.578125 240.976562 320.726562 244.945312 318.058594 248.027344 C 317.050781 249.152344 315.804688 250.277344 314.976562 251.519531 C 312.898438 254.421875 313.730469 255.488281 313.253906 258.273438 C 312.957031 260.050781 312.246094 261.710938 311.121094 263.191406 C 309.816406 264.910156 307.980469 266.390625 305.90625 266.921875 C 303.53125 273.796875 296.832031 277.644531 290.078125 279.480469 C 280.296875 282.089844 269.742188 282.738281 259.722656 284.042969 C 251.304688 285.167969 242.058594 286.589844 234.054688 282.855469 C 227.058594 279.597656 221.605469 272.019531 219.410156 264.789062 C 218.996094 263.367188 220.890625 262.835938 221.605469 263.84375 C 226.644531 270.59375 229.074219 278.179688 237.90625 280.960938 C 245.140625 283.214844 253.082031 281.851562 260.375 280.902344 C 268.734375 279.835938 277.269531 279.125 285.570312 277.703125 C 293.039062 276.402344 300.035156 273.617188 303.949219 267.101562 C 303.53125 267.101562 303.175781 267.039062 302.761719 266.984375 C 302.230469 266.863281 302.050781 265.972656 302.582031 265.738281 C 304.601562 264.789062 306.792969 264.140625 308.394531 262.539062 C 311.179688 259.753906 310.351562 257.089844 311.0625 253.710938 C 311.714844 250.691406 314.382812 248.558594 316.335938 246.367188 C 317.402344 245.183594 318.472656 243.9375 319.359375 242.695312 C 320.78125 240.679688 321.96875 237.421875 321.019531 234.933594 C 320.367188 233.273438 318.113281 232.03125 317.050781 230.609375 C 315.152344 227.941406 314.796875 224.863281 316.039062 221.839844 C 316.21875 221.371094 317.167969 221.371094 317.050781 221.960938 C 316.457031 226.875 318.53125 229.011719 321.613281 232.207031 C 322.800781 233.453125 323.746094 234.753906 323.984375 236.476562 Z M 331.039062 216.804688 C 331.574219 218.761719 330.210938 220.007812 328.726562 221.011719 C 325.882812 222.90625 322.738281 225.160156 319.597656 226.523438 C 318.828125 226.875 317.820312 225.871094 318.589844 225.21875 C 320.25 223.855469 322.148438 222.851562 323.984375 221.722656 C 325.054688 221.074219 328.609375 219.59375 329.203125 217.992188 C 327.246094 217.871094 325.585938 216.75 324.757812 214.910156 C 324.519531 214.4375 324.933594 214.023438 325.347656 214.023438 C 322.207031 212.421875 318.058594 215.265625 315.449219 216.984375 C 312.484375 218.941406 310.171875 221.425781 307.742188 223.976562 C 307.386719 224.332031 306.734375 223.855469 307.03125 223.441406 C 309.519531 219.296875 313.433594 215.976562 317.699219 213.726562 C 320.546875 212.246094 324.101562 210.585938 326.832031 213.074219 C 327.480469 213.667969 326.59375 214.851562 325.882812 214.320312 C 325.882812 214.320312 325.820312 214.320312 325.820312 214.261719 C 326.769531 215.621094 328.3125 216.335938 329.972656 216.097656 C 330.386719 216.039062 330.921875 216.273438 331.039062 216.804688 Z M 192.140625 282.144531 C 193.566406 289.195312 191.25 297.015625 187.457031 302.941406 C 186.390625 304.65625 184.492188 308.152344 182.242188 308.390625 C 180.046875 308.625 179.21875 304.953125 177.675781 304.773438 C 177.675781 305.011719 177.617188 305.191406 177.5 305.425781 C 172.222656 313.898438 161.015625 316.917969 151.949219 319.347656 C 145.902344 321.007812 139.617188 322.667969 133.273438 322.667969 C 126.8125 322.722656 120.585938 320.59375 114.125 320.414062 C 113.414062 320.414062 113.414062 319.347656 114.125 319.289062 C 119.757812 318.757812 125.152344 319.761719 130.785156 319.878906 C 136.890625 320 142.816406 318.695312 148.6875 317.097656 C 158.882812 314.375 167.894531 311.53125 175.367188 303.769531 C 175.898438 303.234375 176.550781 303.292969 177.023438 303.589844 C 178.089844 303.117188 178.269531 303.117188 179.515625 303.648438 C 180.820312 304.183594 180.164062 304.773438 181.589844 305.070312 C 183.664062 305.488281 184.316406 303.292969 185.382812 301.636719 C 189.117188 295.535156 189.710938 289.253906 190.066406 282.324219 C 190.125 281.316406 191.90625 280.960938 192.140625 282.144531 Z M 127.523438 140.746094 C 128.175781 140.746094 128.828125 140.746094 129.539062 140.746094 C 130.191406 140.804688 130.902344 140.683594 131.496094 140.746094 C 131.554688 140.746094 131.671875 140.746094 131.734375 140.746094 C 134.695312 145.304688 137.957031 149.75 141.632812 153.835938 C 141.929688 154.132812 142.226562 154.308594 142.582031 154.371094 C 143.410156 155.910156 144.300781 157.390625 145.191406 158.871094 C 140.269531 154.546875 135.46875 150.164062 130.785156 145.425781 C 129.300781 143.941406 127.820312 142.40625 126.28125 140.921875 C 126.632812 140.804688 127.050781 140.746094 127.523438 140.746094 Z M 46.546875 146.492188 C 48.027344 141.871094 48.324219 136.953125 51.820312 133.28125 C 56.445312 128.484375 63.378906 126.765625 68.417969 122.382812 C 68.65625 122.5 68.953125 122.558594 69.308594 122.4375 C 77.726562 119.773438 85.609375 119.242188 94.089844 121.90625 C 101.972656 124.394531 108.910156 129.132812 115.132812 134.40625 C 125.984375 143.527344 135.230469 155.613281 147.621094 162.78125 C 148.984375 164.855469 150.40625 166.867188 151.949219 168.882812 C 156.097656 174.394531 160.664062 179.605469 165.703125 184.34375 C 170.679688 189.085938 176.3125 194.414062 182.480469 197.554688 C 183.78125 198.207031 185.382812 196.488281 184.136719 195.363281 C 178.921875 190.683594 173.050781 186.890625 168.011719 182.035156 C 162.738281 177 157.816406 171.488281 153.488281 165.566406 C 145.308594 154.371094 138.964844 141.871094 134.816406 128.601562 C 132.324219 120.605469 130.664062 112.367188 129.421875 104.074219 C 128.234375 95.960938 126.457031 87.074219 128.53125 78.960938 C 130.25 72.265625 134.042969 66.339844 136.359375 59.886719 C 137.304688 57.277344 138.019531 54.554688 138.195312 51.769531 C 138.3125 50.347656 137.722656 48.214844 138.136719 46.851562 C 139.972656 40.574219 143.945312 45.785156 145.367188 47.625 C 145.902344 48.332031 146.96875 47.445312 146.613281 46.675781 C 145.070312 43.832031 141.394531 39.507812 137.839844 42.054688 C 134.339844 44.542969 136.117188 51.828125 135.289062 55.324219 C 134.105469 60.238281 131.734375 64.742188 129.597656 69.363281 C 128.886719 66.636719 127.761719 63.855469 126.992188 61.25 C 126.8125 60.65625 125.863281 60.890625 126.039062 61.484375 C 126.871094 64.742188 127.347656 68.476562 128.589844 71.671875 C 128.414062 72.148438 128.175781 72.5625 127.996094 73.035156 C 127.464844 74.398438 126.992188 75.820312 126.574219 77.183594 C 123.550781 71.082031 119.105469 63.914062 119.046875 57.160156 C 119.046875 56.566406 118.097656 56.566406 118.097656 57.160156 C 117.917969 64.800781 122.246094 72.800781 125.804688 79.433594 C 125.863281 79.550781 125.921875 79.613281 125.984375 79.667969 C 125.152344 83.582031 125.035156 87.609375 125.328125 91.8125 C 126.398438 106.683594 129.066406 121.253906 133.925781 135 C 128.234375 120.902344 121.890625 106.917969 118.691406 92.109375 C 118.574219 91.515625 117.625 91.753906 117.742188 92.347656 C 119.582031 102.121094 122.839844 111.363281 126.398438 120.664062 C 127.761719 124.277344 129.003906 128.128906 130.367188 131.976562 C 128.886719 129.371094 127.464844 126.765625 126.101562 124.097656 C 121.121094 114.503906 115.609375 104.726562 113.589844 93.945312 C 111.636719 83.699219 110.925781 71.910156 112.050781 61.542969 C 112.644531 56.09375 114.542969 50.347656 118.808594 46.734375 C 123.375 42.882812 129.539062 43.003906 134.164062 46.554688 C 134.875 47.148438 135.648438 45.964844 135.113281 45.371094 C 129.066406 38.261719 118.453125 41.875 113.652344 48.511719 C 106.597656 58.226562 108.375 72.800781 109.085938 83.996094 C 109.503906 90.332031 110.390625 96.671875 112.40625 102.714844 C 114.480469 108.757812 117.503906 114.503906 120.351562 120.191406 C 123.550781 126.585938 126.929688 132.984375 130.726562 139.027344 C 130.488281 138.90625 130.3125 138.851562 130.015625 138.789062 C 129.300781 138.671875 128.53125 138.554688 127.761719 138.554688 C 126.753906 138.492188 125.328125 138.375 124.441406 138.96875 C 120.53125 135.117188 116.496094 131.445312 112.050781 128.128906 C 100.253906 119.300781 82.46875 112.25 68.300781 119.953125 C 67.886719 120.191406 67.707031 120.542969 67.707031 120.957031 C 61.007812 126.230469 51.167969 127.59375 47.136719 135.828125 C 44.941406 140.332031 43.816406 145.601562 42.039062 150.28125 C 40.378906 154.785156 41.5625 158.101562 43.878906 162.128906 C 44.765625 163.671875 47.195312 162.25 46.25 160.707031 C 44.410156 157.628906 43.34375 154.84375 44.527344 151.289062 C 45.121094 149.75 45.953125 148.207031 46.546875 146.492188 Z M 63.261719 192.933594 C 56.445312 190.863281 52 183.871094 49.566406 176.289062 C 49.507812 176.226562 49.390625 176.226562 49.332031 176.171875 C 48.796875 175.875 48.855469 175.28125 49.152344 174.925781 C 47.671875 169.773438 47.078125 164.378906 47.257812 160.234375 C 47.433594 156.796875 48.324219 153.597656 49.921875 150.519531 C 52.058594 146.550781 53.246094 142.9375 54.308594 138.554688 C 55.554688 133.339844 57.511719 128.363281 62.964844 126.46875 C 63.792969 126.171875 64.089844 127.417969 63.324219 127.769531 C 56.382812 130.613281 56.859375 138.96875 55.257812 144.949219 C 54.308594 148.445312 52.53125 151.289062 51.289062 154.429688 C 67.769531 160.351562 84.246094 166.335938 100.726562 172.320312 C 109.085938 175.339844 117.503906 178.421875 125.863281 181.5 C 133.867188 184.464844 141.75 187.78125 150.109375 189.675781 C 150.523438 189.734375 150.347656 190.328125 149.933594 190.269531 C 132.980469 187.070312 116.496094 179.78125 100.3125 173.976562 C 83.773438 168.050781 67.234375 162.128906 50.695312 156.148438 C 50.21875 157.628906 49.921875 159.226562 49.863281 160.945312 C 49.804688 165.980469 50.695312 171.253906 52.652344 176.050781 C 58.460938 179.191406 64.566406 181.796875 70.910156 183.691406 C 76.957031 185.53125 83.183594 186.476562 89.347656 187.839844 C 95.273438 189.203125 99.839844 191.808594 104.9375 195.066406 C 110.746094 198.738281 117.148438 201.402344 123.847656 202.886719 C 124.203125 202.945312 124.085938 203.539062 123.667969 203.476562 C 117.503906 202.234375 111.753906 200.339844 106.242188 197.257812 C 99.957031 193.703125 94.621094 190.445312 87.449219 189.023438 C 75.59375 186.65625 64.449219 183.871094 53.777344 178.539062 C 56.207031 183.457031 59.644531 187.78125 64.269531 190.800781 C 65.335938 191.453125 64.625 193.347656 63.261719 192.933594 Z M 282.488281 106.269531 C 282.960938 107.214844 283.496094 108.519531 284.207031 109.46875 C 280.53125 111.246094 277.09375 113.378906 273.949219 116.101562 C 267.550781 121.671875 262.566406 128.542969 255.101562 132.628906 C 256.996094 129.667969 258.894531 126.765625 260.96875 123.921875 C 266.660156 116.160156 274.425781 109.941406 280.648438 102.59375 C 281.125 103.898438 281.894531 105.085938 282.488281 106.269531 Z M 286.695312 91.339844 C 279.226562 103.363281 267.371094 111.421875 258.832031 122.558594 C 254.269531 128.484375 250.296875 134.878906 246.265625 141.160156 C 241.640625 148.269531 236.1875 155.316406 232.453125 162.839844 C 231.859375 164.085938 233.519531 165.566406 234.46875 164.378906 C 235.59375 162.960938 236.722656 161.535156 237.730469 159.996094 C 237.90625 160.175781 238.261719 160.234375 238.558594 159.996094 C 244.960938 154.667969 252.609375 150.875 258.773438 145.246094 C 265.117188 139.382812 268.378906 130.792969 275.671875 125.9375 C 276.203125 125.578125 275.726562 124.75 275.136719 125.046875 C 267.964844 129.609375 264.585938 137.308594 258.65625 143.171875 C 253.261719 148.5625 245.554688 151.40625 240.039062 156.621094 C 242.886719 152.238281 245.554688 147.675781 248.339844 143.351562 C 250.0625 140.628906 251.777344 137.902344 253.496094 135.175781 C 253.617188 135.175781 253.734375 135.175781 253.855469 135.175781 C 260.433594 133.042969 265.296875 128.246094 270.097656 123.566406 C 276.558594 117.226562 283.082031 112.546875 291.734375 109.585938 C 295.292969 108.398438 299.027344 106.980469 302.761719 106.328125 C 307.980469 105.4375 309.460938 110.710938 312.78125 113.378906 C 317.699219 117.402344 324.875 118.234375 329.023438 123.210938 C 328.667969 123.210938 328.371094 123.210938 328.015625 123.210938 C 323.984375 123.03125 320.132812 122.675781 316.101562 123.269531 C 298.96875 125.699219 286.101562 138.375 275.90625 151.40625 C 275.492188 151.941406 276.203125 152.769531 276.679688 152.179688 C 284.800781 142.460938 294.285156 133.222656 306.320312 128.71875 C 310.527344 127.121094 314.855469 126.230469 319.300781 126.054688 C 314.441406 130.910156 309.699219 135.355469 304.007812 139.441406 C 298.847656 143.171875 293.574219 146.847656 289.128906 151.347656 C 284.027344 156.5 281.300781 162.722656 278.101562 169.121094 C 274.011719 177.414062 267.84375 183.8125 259.070312 187.070312 C 258.597656 187.246094 258.832031 187.957031 259.25 187.78125 C 265.648438 185.53125 271.222656 181.796875 275.3125 176.347656 C 280.589844 169.238281 282.722656 160.410156 288.832031 153.777344 C 293.929688 148.207031 300.332031 144.0625 306.4375 139.617188 C 311.652344 135.828125 317.699219 131.621094 321.078125 125.9375 C 322.089844 125.9375 323.097656 125.9375 324.164062 126.054688 C 327.1875 126.289062 330.210938 126.707031 333.230469 126.230469 C 334.417969 126.054688 343.011719 124.097656 343.308594 126.882812 C 343.074219 126.707031 342.71875 126.707031 342.480469 127.003906 C 336.613281 133.816406 330.804688 139.914062 323.097656 144.714844 C 322.5625 145.070312 323.035156 145.839844 323.570312 145.542969 C 330.804688 141.691406 337.796875 136.300781 342.480469 129.488281 C 342.597656 130.496094 343.964844 131.324219 344.792969 130.378906 C 347.636719 127.058594 345.148438 122.617188 341.058594 121.90625 C 338.214844 121.375 335.25 122.203125 332.285156 122.796875 C 332.285156 122.796875 332.285156 122.734375 332.226562 122.734375 C 328.488281 116.28125 320.84375 115.570312 315.269531 111.421875 C 312.308594 109.230469 311.179688 104.964844 307.683594 103.484375 C 304.363281 102.121094 300.507812 103.542969 297.25 104.492188 C 293.632812 105.554688 290.132812 106.742188 286.695312 108.222656 C 286.398438 106.980469 285.511719 105.734375 284.800781 104.789062 C 283.910156 103.542969 282.84375 102.242188 281.480469 101.46875 C 283.910156 98.507812 286.042969 95.367188 287.707031 91.8125 C 288 91.28125 287.113281 90.6875 286.695312 91.339844 " fill-opacity="1" fill-rule="nonzero"/></g></svg>